<svg xmlns="http://www.w3.org/2000/svg" viewBox="0 0 24 24"><path fill="#303c42" d="M23.562 10.932c-.001 0-.001 0 0 0L13.062.426c-.566-.568-1.558-.567-2.122 0L.438 10.932A1.497 1.497 0 0 0 0 11.993c0 .401.156.778.439 1.061L10.938 23.56c.284.284.661.44 1.062.44s.778-.156 1.061-.44l10.5-10.506c.283-.283.439-.661.439-1.061 0-.4-.156-.777-.438-1.061z"/><path fill="#ef5350" d="m22.854 12.354-10.501 10.5a.511.511 0 0 1-.706 0l-10.5-10.5a.498.498 0 0 1-.001-.708L8.543 4.25l1.74 1.741A1.98 1.98 0 0 0 10 7c0 .929.64 1.705 1.5 1.929v6.142c-.86.224-1.5 1-1.5 1.929 0 1.103.897 2 2 2s2-.897 2-2c0-.929-.64-1.705-1.5-1.929V8.929a1.96 1.96 0 0 0 .497-.206l2.28 2.28A1.969 1.969 0 0 0 15 12c0 1.103.897 2 2 2s2-.897 2-2-.897-2-2-2c-.375 0-.722.11-1.022.29L13.71 8.022c.18-.3.29-.647.29-1.022 0-1.103-.897-2-2-2-.37 0-.712.108-1.01.284L9.25 3.543l2.397-2.397a.5.5 0 0 1 .707 0l10.499 10.5a.498.498 0 0 1 .001.708z"/><circle cx="12" cy="7" r="1" fill="#fff"/><circle cx="12" cy="17" r="1" fill="#fff"/><circle cx="17" cy="12" r="1" fill="#fff"/><path fill="#fff" d="m1.667 12.167 7.397-7.396-.521-.521-7.397 7.396a.501.501 0 0 0 0 .708l.521.521a.5.5 0 0 1 0-.708zm9.323-6.883-1.219-1.22 2.397-2.397c.094-.094.219-.146.353-.146s.259.052.353.146l-.521-.521C12.259 1.052 12.134 1 12 1s-.259.052-.353.146L9.25 3.543l1.74 1.741z" opacity=".2"/><linearGradient id="a" x1="9.62" x2="17.6" y1="9.627" y2="17.607" gradientUnits="userSpaceOnUse"><stop offset="0" stop-opacity=".1"/><stop offset="1" stop-opacity="0"/></linearGradient><path fill="url(#a)" d="m13.71 8.022 2.268 2.268c.3-.18.647-.29 1.022-.29.49 0 .933.184 1.281.477l-4.756-4.756C13.817 6.07 14 6.512 14 7c0 .375-.11.722-.29 1.022zm4.813 2.697c.293.348.477.791.477 1.281 0 1.103-.897 2-2 2s-2-.897-2-2c0-.365.105-.702.277-.997l-2.28-2.28c-.154.09-.32.16-.497.206v6.142c.86.224 1.5 1 1.5 1.929 0 1.103-.897 2-2 2-.523 0-.996-.206-1.353-.536l3.048 3.048 7.81-7.81-2.982-2.983zm-8.011 7.609.025.025-.023-.027-.002.002z"/><path d="m22.853 11.646-.498-.498a.501.501 0 0 1 .001.708l-10.501 10.5a.511.511 0 0 1-.706 0l.498.498a.51.51 0 0 0 .706 0l10.501-10.5a.501.501 0 0 0-.001-.708z" opacity=".1"/><linearGradient id="b" x1="2.014" x2="21.983" y1="7.34" y2="16.652" gradientUnits="userSpaceOnUse"><stop offset="0" stop-color="#fff" stop-opacity=".2"/><stop offset="1" stop-color="#fff" stop-opacity="0"/></linearGradient><path fill="url(#b)" d="M23.562 10.932c-.001 0-.001 0 0 0L13.062.426c-.566-.568-1.558-.567-2.122 0L.438 10.932A1.497 1.497 0 0 0 0 11.993c0 .401.156.778.439 1.061L10.938 23.56c.284.284.661.44 1.062.44s.778-.156 1.061-.44l10.5-10.506c.283-.283.439-.661.439-1.061 0-.4-.156-.777-.438-1.061z"/></svg>